<svg id="レイヤー_1" data-name="レイヤー 1" xmlns="http://www.w3.org/2000/svg" viewBox="0 0 378.79 102.5"><defs><style>.cls-1{fill:#43c66f;}.cls-2{fill:#e61e0a;}</style></defs><path class="cls-1" d="M238.29,262.44,282,280.56v-30a4.17,4.17,0,0,0-5.77-3.86Z" transform="translate(-231.55 -246.39)"/><path class="cls-2" d="M231.55,327.24v-62l54.66,22.64a4.21,4.21,0,0,1,2.61,3.9v52.91a4.19,4.19,0,0,1-5.8,3.87Z" transform="translate(-231.55 -246.39)"/><path d="M433.59,330.61a32.21,32.21,0,1,1,22.77-55l4.64,4.63-35.48,35.48a19.14,19.14,0,0,0,25.76-10.09l12.13,5a32.23,32.23,0,0,1-29.82,20Zm0-51.31a19.1,19.1,0,0,0-17.33,27.17l25.39-25.39A19.22,19.22,0,0,0,433.59,279.3Z" transform="translate(-231.55 -246.39)"/><path d="M366.69,266.25a21.5,21.5,0,0,0-15,6.13A21.57,21.57,0,0,0,315,287.85v41.39h13.1V287.85a8.49,8.49,0,0,1,17,0v41.39h13.1V287.85a8.49,8.49,0,0,1,17,0v41.39h13.1V287.85A21.62,21.62,0,0,0,366.69,266.25Z" transform="translate(-231.55 -246.39)"/><path d="M536.5,329.24H523.4V296.57a17.27,17.27,0,1,0-34.54,0v32.67h-13.1V296.57a30.37,30.37,0,1,1,60.74,0Z" transform="translate(-231.55 -246.39)"/><path d="M580,330.62a30.41,30.41,0,0,1-30.38-30.37V267.58h13.1v32.67a17.28,17.28,0,0,0,34.55,0V267.58h13.1v32.67A30.41,30.41,0,0,1,580,330.62Z" transform="translate(-231.55 -246.39)"/></svg>